<mxfile host="Electron" agent="Mozilla/5.0 (Windows NT 10.0; Win64; x64) AppleWebKit/537.36 (KHTML, like Gecko) draw.io/27.0.9 Chrome/134.0.6998.205 Electron/35.4.0 Safari/537.36" version="27.0.9">
  <diagram name="Página-1" id="H1slkef6s4ijlXLnpxdw">
    <mxGraphModel dx="1028" dy="611" grid="1" gridSize="10" guides="1" tooltips="1" connect="1" arrows="1" fold="1" page="1" pageScale="1" pageWidth="827" pageHeight="1169" math="0" shadow="0">
      <root>
        <mxCell id="0" />
        <mxCell id="1" parent="0" />
        <mxCell id="rpNIbIohMnNlEjVR_rIs-1" value="" style="endArrow=none;html=1;rounded=0;exitX=0.25;exitY=1;exitDx=0;exitDy=0;" edge="1" parent="1">
          <mxGeometry width="50" height="50" relative="1" as="geometry">
            <mxPoint x="80" y="320" as="sourcePoint" />
            <mxPoint x="1440" y="320" as="targetPoint" />
          </mxGeometry>
        </mxCell>
        <mxCell id="rpNIbIohMnNlEjVR_rIs-2" value="&lt;font style=&quot;font-size: 18px;&quot;&gt;Objetivos&lt;/font&gt;" style="text;html=1;align=center;verticalAlign=middle;whiteSpace=wrap;rounded=0;" vertex="1" parent="1">
          <mxGeometry x="80" y="290" width="80" height="30" as="geometry" />
        </mxCell>
        <mxCell id="rpNIbIohMnNlEjVR_rIs-5" style="edgeStyle=orthogonalEdgeStyle;rounded=0;orthogonalLoop=1;jettySize=auto;html=1;" edge="1" parent="1" source="rpNIbIohMnNlEjVR_rIs-3" target="rpNIbIohMnNlEjVR_rIs-4">
          <mxGeometry relative="1" as="geometry" />
        </mxCell>
        <mxCell id="rpNIbIohMnNlEjVR_rIs-3" value="&lt;div&gt;Analisar o desempenho de consultas feitas a APIs Web&lt;/div&gt;&lt;div&gt;Com o propósito de avaliar a eficiência em termos de tempo de resposta&lt;/div&gt;&lt;div&gt;Do ponto de vista de desenvolvedores e arquitetos de software&lt;/div&gt;&lt;div&gt;No contexto de sistemas que oferecem interfaces REST e GraphQL&lt;/div&gt;" style="ellipse;whiteSpace=wrap;html=1;" vertex="1" parent="1">
          <mxGeometry x="140" y="80" width="400" height="240" as="geometry" />
        </mxCell>
        <mxCell id="rpNIbIohMnNlEjVR_rIs-7" style="edgeStyle=orthogonalEdgeStyle;rounded=0;orthogonalLoop=1;jettySize=auto;html=1;entryX=0.5;entryY=0;entryDx=0;entryDy=0;" edge="1" parent="1" source="rpNIbIohMnNlEjVR_rIs-4" target="rpNIbIohMnNlEjVR_rIs-6">
          <mxGeometry relative="1" as="geometry">
            <Array as="points">
              <mxPoint x="340" y="510" />
              <mxPoint x="190" y="510" />
            </Array>
          </mxGeometry>
        </mxCell>
        <mxCell id="rpNIbIohMnNlEjVR_rIs-9" style="edgeStyle=orthogonalEdgeStyle;rounded=0;orthogonalLoop=1;jettySize=auto;html=1;" edge="1" parent="1" source="rpNIbIohMnNlEjVR_rIs-4" target="rpNIbIohMnNlEjVR_rIs-8">
          <mxGeometry relative="1" as="geometry" />
        </mxCell>
        <mxCell id="rpNIbIohMnNlEjVR_rIs-11" style="edgeStyle=orthogonalEdgeStyle;rounded=0;orthogonalLoop=1;jettySize=auto;html=1;" edge="1" parent="1" source="rpNIbIohMnNlEjVR_rIs-4" target="rpNIbIohMnNlEjVR_rIs-10">
          <mxGeometry relative="1" as="geometry" />
        </mxCell>
        <mxCell id="rpNIbIohMnNlEjVR_rIs-4" value="As consultas feitas&amp;nbsp;&lt;span style=&quot;background-color: transparent; color: light-dark(rgb(0, 0, 0), rgb(255, 255, 255));&quot;&gt;via GraphQL&amp;nbsp;&lt;/span&gt;&lt;span style=&quot;background-color: transparent; color: light-dark(rgb(0, 0, 0), rgb(255, 255, 255));&quot;&gt;são mais rápidas&amp;nbsp;&lt;/span&gt;&lt;span style=&quot;background-color: transparent; color: light-dark(rgb(0, 0, 0), rgb(255, 255, 255));&quot;&gt;que as feitas via REST?&lt;/span&gt;" style="ellipse;whiteSpace=wrap;html=1;" vertex="1" parent="1">
          <mxGeometry x="210" y="370" width="260" height="80" as="geometry" />
        </mxCell>
        <mxCell id="rpNIbIohMnNlEjVR_rIs-6" value="Tempo de resposta médio (em milissegundos) para REST" style="ellipse;whiteSpace=wrap;html=1;" vertex="1" parent="1">
          <mxGeometry x="100" y="570" width="180" height="80" as="geometry" />
        </mxCell>
        <mxCell id="rpNIbIohMnNlEjVR_rIs-8" value="Tempo de resposta médio (em milissegundos) para GraphQL" style="ellipse;whiteSpace=wrap;html=1;" vertex="1" parent="1">
          <mxGeometry x="414" y="580" width="180" height="80" as="geometry" />
        </mxCell>
        <mxCell id="rpNIbIohMnNlEjVR_rIs-10" value="Desvio padrão e intervalo de confiança dos tempos" style="ellipse;whiteSpace=wrap;html=1;" vertex="1" parent="1">
          <mxGeometry x="250" y="630" width="180" height="80" as="geometry" />
        </mxCell>
        <mxCell id="rpNIbIohMnNlEjVR_rIs-18" style="edgeStyle=orthogonalEdgeStyle;rounded=0;orthogonalLoop=1;jettySize=auto;html=1;" edge="1" parent="1" source="rpNIbIohMnNlEjVR_rIs-12" target="rpNIbIohMnNlEjVR_rIs-17">
          <mxGeometry relative="1" as="geometry">
            <Array as="points">
              <mxPoint x="770" y="330" />
              <mxPoint x="770" y="330" />
            </Array>
          </mxGeometry>
        </mxCell>
        <mxCell id="rpNIbIohMnNlEjVR_rIs-12" value="&lt;div&gt;Analisar o volume de dados transferido por requisições em APIs Web&lt;/div&gt;&lt;div&gt;Com o propósito de avaliar a eficiência em termos de uso da rede&lt;/div&gt;&lt;div&gt;Do ponto de vista de desenvolvedores e engenheiros de desempenho&lt;/div&gt;&lt;div&gt;No contexto de aplicações cliente-servidor que usam REST ou GraphQL&lt;/div&gt;" style="ellipse;whiteSpace=wrap;html=1;" vertex="1" parent="1">
          <mxGeometry x="570" y="80" width="400" height="240" as="geometry" />
        </mxCell>
        <mxCell id="rpNIbIohMnNlEjVR_rIs-13" value="" style="endArrow=none;html=1;rounded=0;exitX=0.25;exitY=1;exitDx=0;exitDy=0;" edge="1" parent="1">
          <mxGeometry width="50" height="50" relative="1" as="geometry">
            <mxPoint x="80" y="480" as="sourcePoint" />
            <mxPoint x="1440" y="480" as="targetPoint" />
          </mxGeometry>
        </mxCell>
        <mxCell id="rpNIbIohMnNlEjVR_rIs-14" value="&lt;span style=&quot;font-size: 18px;&quot;&gt;Perguntas&lt;/span&gt;" style="text;html=1;align=center;verticalAlign=middle;whiteSpace=wrap;rounded=0;" vertex="1" parent="1">
          <mxGeometry x="80" y="450" width="80" height="30" as="geometry" />
        </mxCell>
        <mxCell id="rpNIbIohMnNlEjVR_rIs-15" value="" style="endArrow=none;html=1;rounded=0;exitX=0.25;exitY=1;exitDx=0;exitDy=0;" edge="1" parent="1">
          <mxGeometry width="50" height="50" relative="1" as="geometry">
            <mxPoint x="80" y="720" as="sourcePoint" />
            <mxPoint x="1440" y="720" as="targetPoint" />
          </mxGeometry>
        </mxCell>
        <mxCell id="rpNIbIohMnNlEjVR_rIs-16" value="&lt;span style=&quot;font-size: 18px;&quot;&gt;Métricas&lt;/span&gt;" style="text;html=1;align=center;verticalAlign=middle;whiteSpace=wrap;rounded=0;" vertex="1" parent="1">
          <mxGeometry x="80" y="690" width="80" height="30" as="geometry" />
        </mxCell>
        <mxCell id="rpNIbIohMnNlEjVR_rIs-22" style="edgeStyle=orthogonalEdgeStyle;rounded=0;orthogonalLoop=1;jettySize=auto;html=1;" edge="1" parent="1" source="rpNIbIohMnNlEjVR_rIs-17" target="rpNIbIohMnNlEjVR_rIs-19">
          <mxGeometry relative="1" as="geometry">
            <Array as="points">
              <mxPoint x="770" y="500" />
              <mxPoint x="670" y="500" />
            </Array>
          </mxGeometry>
        </mxCell>
        <mxCell id="rpNIbIohMnNlEjVR_rIs-23" style="edgeStyle=orthogonalEdgeStyle;rounded=0;orthogonalLoop=1;jettySize=auto;html=1;" edge="1" parent="1" source="rpNIbIohMnNlEjVR_rIs-17" target="rpNIbIohMnNlEjVR_rIs-20">
          <mxGeometry relative="1" as="geometry">
            <Array as="points">
              <mxPoint x="770" y="500" />
              <mxPoint x="770" y="500" />
            </Array>
          </mxGeometry>
        </mxCell>
        <mxCell id="rpNIbIohMnNlEjVR_rIs-24" style="edgeStyle=orthogonalEdgeStyle;rounded=0;orthogonalLoop=1;jettySize=auto;html=1;entryX=0.5;entryY=0;entryDx=0;entryDy=0;" edge="1" parent="1" source="rpNIbIohMnNlEjVR_rIs-17" target="rpNIbIohMnNlEjVR_rIs-21">
          <mxGeometry relative="1" as="geometry">
            <Array as="points">
              <mxPoint x="770" y="510" />
              <mxPoint x="924" y="510" />
            </Array>
          </mxGeometry>
        </mxCell>
        <mxCell id="rpNIbIohMnNlEjVR_rIs-17" value="As respostas às consultas GraphQL têm tamanho menor do que as da REST?" style="ellipse;whiteSpace=wrap;html=1;" vertex="1" parent="1">
          <mxGeometry x="640" y="370" width="260" height="80" as="geometry" />
        </mxCell>
        <mxCell id="rpNIbIohMnNlEjVR_rIs-19" value="Tamanho médio das respostas (em bytes) para REST" style="ellipse;whiteSpace=wrap;html=1;" vertex="1" parent="1">
          <mxGeometry x="580" y="530" width="180" height="80" as="geometry" />
        </mxCell>
        <mxCell id="rpNIbIohMnNlEjVR_rIs-20" value="Tamanho médio das respostas (em bytes) para GraphQL" style="ellipse;whiteSpace=wrap;html=1;" vertex="1" parent="1">
          <mxGeometry x="680" y="630" width="180" height="80" as="geometry" />
        </mxCell>
        <mxCell id="rpNIbIohMnNlEjVR_rIs-21" value="Desvio padrão e distribuição dos tamanhos das respostas" style="ellipse;whiteSpace=wrap;html=1;" vertex="1" parent="1">
          <mxGeometry x="827" y="545" width="193" height="80" as="geometry" />
        </mxCell>
        <mxCell id="rpNIbIohMnNlEjVR_rIs-27" style="edgeStyle=orthogonalEdgeStyle;rounded=0;orthogonalLoop=1;jettySize=auto;html=1;" edge="1" parent="1" source="rpNIbIohMnNlEjVR_rIs-25" target="rpNIbIohMnNlEjVR_rIs-26">
          <mxGeometry relative="1" as="geometry" />
        </mxCell>
        <mxCell id="rpNIbIohMnNlEjVR_rIs-25" value="&lt;div&gt;Comparar a flexibilidade na definição de dados retornados pelas APIs&lt;/div&gt;&lt;div&gt;Com o propósito de identificar o potencial de sub/superfetching&lt;/div&gt;&lt;div&gt;Do ponto de vista de desenvolvedores que consomem a API&lt;/div&gt;&lt;div&gt;No contexto de sistemas com diferentes necessidades de dados por tela&lt;/div&gt;" style="ellipse;whiteSpace=wrap;html=1;" vertex="1" parent="1">
          <mxGeometry x="990" y="80" width="400" height="240" as="geometry" />
        </mxCell>
        <mxCell id="rpNIbIohMnNlEjVR_rIs-29" style="edgeStyle=orthogonalEdgeStyle;rounded=0;orthogonalLoop=1;jettySize=auto;html=1;entryX=0.5;entryY=0;entryDx=0;entryDy=0;" edge="1" parent="1" source="rpNIbIohMnNlEjVR_rIs-26" target="rpNIbIohMnNlEjVR_rIs-28">
          <mxGeometry relative="1" as="geometry">
            <Array as="points">
              <mxPoint x="1190" y="500" />
              <mxPoint x="1145" y="500" />
            </Array>
          </mxGeometry>
        </mxCell>
        <mxCell id="rpNIbIohMnNlEjVR_rIs-31" style="edgeStyle=orthogonalEdgeStyle;rounded=0;orthogonalLoop=1;jettySize=auto;html=1;" edge="1" parent="1" source="rpNIbIohMnNlEjVR_rIs-26" target="rpNIbIohMnNlEjVR_rIs-30">
          <mxGeometry relative="1" as="geometry" />
        </mxCell>
        <mxCell id="rpNIbIohMnNlEjVR_rIs-26" value="O GraphQL evita mais superfetching e underfetching em comparação com REST?" style="ellipse;whiteSpace=wrap;html=1;" vertex="1" parent="1">
          <mxGeometry x="1060" y="360" width="260" height="80" as="geometry" />
        </mxCell>
        <mxCell id="rpNIbIohMnNlEjVR_rIs-28" value="Número de atributos irrelevantes retornados por REST em relação ao necessário" style="ellipse;whiteSpace=wrap;html=1;" vertex="1" parent="1">
          <mxGeometry x="1040" y="530" width="210" height="80" as="geometry" />
        </mxCell>
        <mxCell id="rpNIbIohMnNlEjVR_rIs-30" value="&lt;div&gt;Número de atributos exatos retornados por GraphQL (sem excessos)&lt;/div&gt;" style="ellipse;whiteSpace=wrap;html=1;" vertex="1" parent="1">
          <mxGeometry x="1200" y="610" width="210" height="80" as="geometry" />
        </mxCell>
      </root>
    </mxGraphModel>
  </diagram>
</mxfile>
